<svg xmlns="http://www.w3.org/2000/svg" width="100" height="100" viewBox="0 0 100 100">
  <defs>
    <pattern id="fur" patternUnits="userSpaceOnUse" width="100" height="100">
      <rect width="100" height="100" fill="#ff9466" opacity="0.05"/>
      <g fill="#ff9466" opacity="0.1">
        <rect x="25" y="10" width="1" height="5" />
        <rect x="45" y="30" width="1" height="8" />
        <rect x="70" y="60" width="1" height="6" />
        <rect x="85" y="25" width="1" height="7" />
        <rect x="15" y="55" width="1" height="9" />
        <rect x="35" y="80" width="1" height="4" />
        <rect x="60" y="40" width="1" height="5" />
        <rect x="90" y="75" width="1" height="8" />
        <rect x="5" y="15" width="1" height="6" />
        <rect x="50" y="5" width="1" height="7" />
        <rect x="80" y="90" width="1" height="5" />
        <rect x="20" y="40" width="1" height="8" />
        <rect x="40" y="65" width="1" height="6" />
        <rect x="75" y="20" width="1" height="5" />
        <rect x="10" y="85" width="1" height="7" />
        <rect x="55" y="50" width="1" height="9" />
        <rect x="95" y="35" width="1" height="4" />
        <rect x="30" y="95" width="1" height="5" />
        <rect x="65" y="10" width="1" height="8" />
        <rect x="85" y="45" width="1" height="6" />
      </g>
    </pattern>
  </defs>
  <rect width="100" height="100" fill="url(#fur)" />
</svg>
